Coordinates
version=1
nRows=10
nColumns=40
inDegrees=yes

Units are S.I. units (second, meters, Newtons, ...)
If the header above contains a line with 'inDegrees', this indicates whether rotational values are in degrees (yes) or radians (no).

endheader
time	pelvis_tilt	pelvis_list	pelvis_rotation	pelvis_tx	pelvis_ty	pelvis_tz	hip_flexion_r	hip_adduction_r	hip_rotation_r	knee_angle_r	knee_angle_r_beta	ankle_angle_r	subtalar_angle_r	mtp_angle_r	hip_flexion_l	hip_adduction_l	hip_rotation_l	knee_angle_l	knee_angle_l_beta	ankle_angle_l	subtalar_angle_l	mtp_angle_l	lumbar_extension	lumbar_bending	lumbar_rotation	arm_flex_r	arm_add_r	arm_rot_r	elbow_flex_r	pro_sup_r	wrist_flex_r	wrist_dev_r	arm_flex_l	arm_add_l	arm_rot_l	elbow_flex_l	pro_sup_l	wrist_flex_l	wrist_dev_l
      5.50000000	    -30.74381462	      6.43156260	     -7.34805285	     -0.37342606	      0.84866956	     -1.06775460	     15.97740475	     -8.59218654	      8.51420738	     62.13416023	      1.08444567	     14.83518850	      0.00000000	      0.00000000	     70.67593041	     -0.40074879	     -8.86842693	     69.59820838	      1.21471789	     17.42702110	      0.00000000	      0.00000000	      5.99654782	    -14.34662391	     11.33411168	     89.97539045	     -6.51511577	      7.81122775	     52.98488800	     37.38196186	      0.00000000	      0.00000000	     89.97200518	    -14.29925205	      5.03783104	     56.93976546	     44.02347911	      0.00000000	      0.00000000
      5.50500000	    -30.76805247	      6.44649153	     -7.37788725	     -0.37353786	      0.84811743	     -1.06759063	     16.06458968	     -8.56645280	      8.59409228	     62.32709757	      1.08781307	     14.97627180	      0.00000000	      0.00000000	     70.75387826	     -0.43558556	     -8.88202067	     69.70675857	      1.21661245	     17.58498391	      0.00000000	      0.00000000	      5.99575469	    -14.36589980	     11.42740103	     89.97539919	     -6.56959850	      7.85958783	     53.00934668	     37.59965555	      0.00000000	      0.00000000	     89.97202510	    -14.21540713	      5.03173311	     56.99218142	     43.98208427	      0.00000000	      0.00000000
      5.51000000	    -30.77192466	      6.43576222	     -7.34018080	     -0.37368909	      0.84759331	     -1.06758206	     16.12029030	     -8.53526437	      8.59747348	     62.53665670	      1.09147056	     15.00302472	      0.00000000	      0.00000000	     70.83764848	     -0.38118046	     -8.80622534	     69.82044102	      1.21859658	     17.60625775	      0.00000000	      0.00000000	      5.91996673	    -14.31535086	     11.33041180	     89.97540771	     -6.24918056	      8.32396496	     54.73396992	     15.86440226	      0.00000000	      0.00000000	     89.97198440	    -14.27654326	      5.10197137	     57.31216233	     39.77834971	      0.00000000	      0.00000000
      5.51500000	    -30.87645607	      6.37350815	     -7.23063381	     -0.37391586	      0.84692251	     -1.06769457	     16.26796291	     -8.46367324	      8.52227338	     62.74123197	      1.09504107	     15.05308645	      0.00000000	      0.00000000	     71.03826826	     -0.32583097	     -8.69191700	     69.95491186	      1.22094354	     17.62305060	      0.00000000	      0.00000000	      5.95962690	    -14.23742523	     11.29370913	     89.97542391	     -6.28618914	      8.27922714	     54.47456074	     19.05972483	      0.00000000	      0.00000000	     89.97202875	    -14.21742240	      5.11974278	     57.24655931	     40.37579285	      0.00000000	      0.00000000
      5.52000000	    -30.89665400	      6.35683790	     -7.19394386	     -0.37403237	      0.84635181	     -1.06769301	     16.34301080	     -8.43078190	      8.50226295	     62.95756620	      1.09881682	     15.11151818	      0.00000000	      0.00000000	     71.12594347	     -0.30089333	     -8.63499880	     70.04856569	      1.22257811	     17.53366724	      0.00000000	      0.00000000	      5.93014069	    -14.20166435	     11.26947404	     89.97547365	     -6.23641069	      8.24176206	     54.23356127	     21.92078401	      0.00000000	      0.00000000	     89.97206489	    -14.19024823	      5.06072305	     57.19453867	     40.88500849	      0.00000000	      0.00000000
      5.52500000	    -30.93122059	      6.36296174	     -7.16504241	     -0.37410901	      0.84577431	     -1.06766525	     16.41554791	     -8.40598812	      8.52039128	     63.14097047	      1.10201783	     15.23370688	      0.00000000	      0.00000000	     71.23021709	     -0.25280529	     -8.58441533	     70.17095594	      1.22471422	     17.72029961	      0.00000000	      0.00000000	      5.91428537	    -14.21926009	     11.28369582	     89.97551690	     -6.26582521	      8.23244660	     54.08294905	     24.45428666	      0.00000000	      0.00000000	     89.97209855	    -14.11062206	      5.02593307	     57.20926556	     41.30983547	      0.00000000	      0.00000000
      5.53000000	    -30.85105647	      6.47392603	     -7.26746703	     -0.37399906	      0.84544776	     -1.06742411	     16.41075327	     -8.45474374	      8.73369617	     63.32347917	      1.10520321	     15.25961477	      0.00000000	      0.00000000	     71.15365421	     -0.28956164	     -8.72874825	     70.21281467	      1.22544479	     17.77718420	      0.00000000	      0.00000000	      5.83672530	    -14.34516445	     11.41532521	     89.97549488	     -6.24401403	      8.20992838	     53.88388306	     26.61875714	      0.00000000	      0.00000000	     89.97211059	    -14.06835467	      4.96377083	     57.23363367	     41.64044688	      0.00000000	      0.00000000
      5.53500000	    -30.93992933	      6.44053480	     -7.23158340	     -0.37416464	      0.84479373	     -1.06739376	     16.54588881	     -8.37631136	      8.75216555	     63.52234199	      1.10867402	     15.30425115	      0.00000000	      0.00000000	     71.32419709	     -0.27773377	     -8.62407221	     70.32912425	      1.22747478	     17.75689898	      0.00000000	      0.00000000	      5.87536655	    -14.29490080	     11.39147022	     89.97552722	     -6.20274170	      8.14337810	     53.77149965	     28.31371729	      0.00000000	      0.00000000	     89.97213305	    -14.05615058	      4.92610725	     57.24640624	     41.87290701	      0.00000000	      0.00000000
      5.54000000	    -30.99056449	      6.41091971	     -7.17425361	     -0.37434703	      0.84418368	     -1.06740513	     16.65363586	     -8.31317912	      8.76434756	     63.74026385	      1.11247747	     15.29984590	      0.00000000	      0.00000000	     71.47262309	     -0.22706235	     -8.51838428	     70.47726395	      1.23006030	     17.82113575	      0.00000000	      0.00000000	      5.86120858	    -14.23874177	     11.36339180	     89.97549744	     -6.11545082	      8.40308927	     54.93464152	     14.59992581	      0.00000000	      0.00000000	     89.97213746	    -14.02064422	      5.04088590	     57.56054986	     37.20011345	      0.00000000	      0.00000000
      5.54500000	    -31.06918198	      6.38273843	     -7.18255997	     -0.37455828	      0.84353812	     -1.06723037	     16.81320958	     -8.23402905	      8.79139099	     63.96284533	      1.11636225	     15.32801871	      0.00000000	      0.00000000	     71.63055779	     -0.27880193	     -8.47420922	     70.60605103	      1.23230806	     17.80722828	      0.00000000	      0.00000000	      5.90996547	    -14.18143749	     11.36074734	     89.97556690	     -5.98553490	      8.31182608	     54.64749985	     17.97971149	      0.00000000	      0.00000000	     89.97219546	    -14.03518819	      5.00119403	     57.44949386	     38.18690183	      0.00000000	      0.00000000
